<?xml version="1.0" encoding="UTF-8" standalone="no"?>
<!-- Created with Inkscape (http://www.inkscape.org/) -->

<svg
   xmlns:dc="http://purl.org/dc/elements/1.1/"
   xmlns:cc="http://creativecommons.org/ns#"
   xmlns:rdf="http://www.w3.org/1999/02/22-rdf-syntax-ns#"
   xmlns:svg="http://www.w3.org/2000/svg"
   xmlns="http://www.w3.org/2000/svg"
   xmlns:sodipodi="http://sodipodi.sourceforge.net/DTD/sodipodi-0.dtd"
   xmlns:inkscape="http://www.inkscape.org/namespaces/inkscape"
   version="1.1"
   id="svg827"
   width="2077.7441"
   height="2025.8965"
   viewBox="0 0 2077.7441 2025.8964"
   sodipodi:docname="incandescent_light_bulb.svg"
   inkscape:export-filename="C:\Users\LB\Desktop\PCB business card\Design\ampoules\rayon.png"
   inkscape:export-xdpi="96"
   inkscape:export-ydpi="96"
   inkscape:version="0.92.2 (5c3e80d, 2017-08-06)">
  <metadata
     id="metadata833">
    <rdf:RDF>
      <cc:Work
         rdf:about="">
        <dc:format>image/svg+xml</dc:format>
        <dc:type
           rdf:resource="http://purl.org/dc/dcmitype/StillImage" />
        <dc:title />
      </cc:Work>
    </rdf:RDF>
  </metadata>
  <defs
     id="defs831" />
  <sodipodi:namedview
     pagecolor="#ffffff"
     bordercolor="#666666"
     borderopacity="1"
     objecttolerance="10"
     gridtolerance="10"
     guidetolerance="10"
     inkscape:pageopacity="0"
     inkscape:pageshadow="2"
     inkscape:window-width="757"
     inkscape:window-height="670"
     id="namedview829"
     showgrid="false"
     inkscape:zoom="0.22627417"
     inkscape:cx="987.6812"
     inkscape:cy="1020.7185"
     inkscape:window-x="98"
     inkscape:window-y="1"
     inkscape:window-maximized="0"
     inkscape:current-layer="svg827"
     fit-margin-top="0"
     fit-margin-left="0"
     fit-margin-right="0"
     fit-margin-bottom="0" />
  <path
     style="fill:#000000;stroke-width:6.00800753"
     d="m 157.7793,0 c -2.35752,8.3103 -6.03482,17.8902 -11.0625,29.2598 -17.51002,39.5895 -19.20941,69.4781 -4.77539,83.9121 8.89749,8.8975 18.3972,9.7189 72.13476,6.2461 68.88334,-4.454 80.41076,-1.2013 91.61524,25.8515 6.32505,15.2695 5.43934,24.5768 -6.00196,63.1192 -12.73339,42.8947 -12.90025,45.9984 -3.27539,60.6875 13.77822,21.0284 32.4118,26.9628 84.66992,26.9628 70.99516,0 84.27543,18.4675 72.08985,100.2989 -4.38368,29.4341 -3.63749,32.218 13.15039,49.0058 14.2011,14.2011 24.99034,18.6051 53.36914,21.7852 72.57492,8.1311 88.84752,24.3802 89.57617,89.4277 0.43069,38.3159 1.78551,42.41 19.22266,57.9864 10.31709,9.2188 33.70469,21.1072 51.9707,26.416 53.93144,15.6779 75.79008,40.0598 84.78125,94.5586 5.04599,30.5883 20.29315,47.5481 71.37109,79.3828 1.87478,1.1685 3.6223,2.2888 5.38868,3.416 3.32095,-3.1553 6.37136,-5.9569 8.6875,-7.9043 1.18932,-1.0001 2.38682,-1.99 3.59375,-2.9707 -0.15408,-0.081 -0.30643,-0.1641 -0.46094,-0.2442 -39.33737,-20.2777 -61.27845,-48.9797 -74.16016,-97.0117 -13.76782,-51.3317 -29.77453,-76.3014 -52.05859,-81.2187 -68.96792,-15.2213 -84.83132,-32.2387 -90.39258,-96.9649 -6.13378,-71.3724 -24.2499,-91.7636 -81.51758,-91.7636 -17.26814,0 -31.23344,-4.2474 -42.11523,-12.8067 -23.83898,-18.7513 -28.72526,-36.851 -21.1836,-78.4433 12.81275,-70.6581 -9.64342,-96.233 -79.5625,-90.6211 -38.48119,3.0877 -40.87584,2.4834 -58.10351,-14.7442 -19.75717,-19.7572 -20.0106,-26.7688 -3.35156,-92.4863 9.88119,-38.9796 3.45963,-68.3976 -16.29493,-74.668 -6.55277,-2.0858 -36.99255,-1.9092 -67.64843,0.3887 -55.72057,4.1782 -55.73877,4.1761 -68.69336,-12.293 C 184.28728,46.1881 182.53037,42.8035 196.82812,0 Z m 286.13281,0 c 12.69849,4.3588 19.21839,10.3145 24.0957,19.4277 9.7953,18.3024 7.35388,32.3463 -11.8789,68.3906 -33.97259,63.6603 -19.5404,90.3815 54.76367,101.4102 35.12296,5.2115 47.55667,9.957 60.7832,23.1836 20.06555,20.0656 20.64179,33.4073 3.50781,81.1894 l -6.09375,33.084 4.81641,23.9922 c 9.794,16.9232 19.46522,23.0823 55.76563,35.4981 29.04762,9.9334 49.01209,20.969 58.97265,32.5976 14.29871,16.6955 14.85409,20.0486 10.97656,66.5879 -3.88013,46.5707 -3.33118,49.9044 11.08203,67.0332 8.34188,9.9137 31.30857,26.6252 51.03321,37.1387 42.42247,22.6107 60.88086,52.8495 60.88086,99.7285 0,36.1924 12.62601,57.304 57.375,95.918 0.81,0.699 1.61736,1.4196 2.42383,2.1425 4.55247,-2.8584 9.18472,-5.6013 13.89843,-8.2089 -0.84015,-0.8087 -1.62888,-1.5769 -2.50976,-2.418 -38.75574,-37.0057 -53.16399,-65.2027 -53.16407,-104.0508 0,-52.2256 -17.49287,-82.9612 -57.07617,-100.2773 -13.21741,-5.7825 -30.78957,-17.8455 -39.05078,-26.8067 -14.25056,-15.4619 -14.94686,-19.435 -13.40625,-77.875 2.00121,-76.3704 -5.07143,-89.0288 -55.61719,-99.5215 -59.79327,-12.412 -75.17391,-39.4978 -56.46679,-99.4355 12.9923,-41.6249 13.87702,-56.6535 4.54883,-77.125 -7.92681,-17.3968 -26.88226,-25.7116 -67.4961,-29.6074 -36.93941,-3.5444 -60.28946,-20.2717 -62.7539,-44.9551 -1.11381,-11.1473 5.51346,-35.4152 16.52148,-60.4941 C 521.25061,30.5565 526.99124,13.105 527.3457,0 Z m 186.16992,0 c -2.9117,4.0276 -6.11144,8.3358 -9.68555,13.0351 -11.04183,14.5187 -20.07812,32.9757 -20.07812,41.0157 0,21.8 29.0257,46.8475 67.12305,57.9218 48.6057,14.1309 62.13657,26.9303 61.9414,58.877 -0.0742,18.426 -4.91753,33.08 -16.52148,49.9902 -18.4638,26.9124 -21.01111,53.9579 -6.96875,74.0039 5.19302,7.4167 25.56037,21.6214 45.26172,31.5664 37.36216,18.8594 59.42187,45.0425 59.42187,70.6602 0.0131,7.6497 -5.64868,27.0893 -12.58008,43.1992 -17.32799,40.2808 -9.28866,64.0931 32.69532,96.8594 51.17554,39.9385 57.20199,48.9829 51.19921,113.3183 l 8.10743,52.9356 9.54883,23.7305 c 9.53723,18.6554 25.47239,33.5615 28.02148,37.0468 5.34201,-2.1825 10.74953,-4.2121 16.21484,-6.08 -1.43086,-1.703 -2.92324,-3.4153 -4.49609,-5.1563 -29.55767,-32.7169 -34.3403,-49.9079 -33.11719,-119.2558 l -5.54687,-52.5391 -13.73633,-28.5703 c -11.20969,-10.5578 -27.46107,-23.982 -36.11524,-29.836 -8.96776,-6.0623 -18.84919,-21.0258 -22.97265,-34.7832 -6.11686,-20.4195 -5.55942,-29.436 3.60351,-58.4511 21.89762,-69.3375 13.07136,-93.7769 -42.82617,-118.5684 -17.06891,-7.5676 -33.96928,-19.2403 -37.55273,-25.9375 -11.45562,-21.4031 -7.25915,-53.8583 11.50781,-89.0254 19.65178,-36.8274 21.46241,-48.0082 11.35352,-70.1933 C 766.2208,108.9419 752.56869,101.0683 714.46875,91.4902 659.92236,77.7798 647.85346,50.8833 675.55273,0 Z m 146.30859,0 c 0.10789,2.0172 0.47557,4.0923 1.03907,6.3496 5.73953,22.9971 18.33853,35.1523 58.77929,56.709 59.46148,31.6904 65.49807,63.02 22.23243,115.3769 -32.87959,39.7786 -32.64341,61.7471 0.98828,92.1739 69.42202,62.8082 67.09937,59.6158 63.92578,87.7656 -1.60826,14.2739 -10.06462,36.4561 -18.78906,49.2949 -8.72312,12.8399 -15.86133,29.5829 -15.86133,37.209 0,18.7956 19.32094,55.1578 39.03906,73.4668 33.73838,31.3285 42.08676,73.0504 23.51367,117.5078 -12.19339,29.1804 -8.56873,46.564 22.9043,109.7988 0.60421,1.2139 1.13509,2.2964 1.71094,3.459 2.53106,-0.554 5.06827,-1.0827 7.61328,-1.5683 3.13253,-0.5978 6.26725,-1.1261 9.40234,-1.6231 -2.00804,-4.1015 -4.28645,-8.4337 -6.97656,-13.3887 -21.41878,-39.4505 -23.9982,-66.5754 -10.07813,-106.0312 4.9562,-14.0489 9.01172,-38.8361 9.01172,-55.084 0,-26.8109 -2.5479,-32.2697 -27.56445,-59.0156 -37.55605,-40.148 -40.63216,-63.5445 -15.21875,-115.7129 19.6856,-40.4055 23.86887,-73.8294 11.24219,-89.8145 -4.12994,-5.2281 -18.88462,-16.5228 -32.78516,-25.0937 -45.06257,-27.7829 -50.88113,-63.8005 -17.39648,-107.6699 27.00476,-35.3779 33.6582,-48.5098 33.6582,-66.418 0,-26.1238 -6.38571,-33.4743 -48.17187,-55.4316 C 855.19853,34.7041 838.1361,17.975 835.84766,0 Z m 190.1836,0 c 4.93723,10.2733 12.93855,20.2257 23.64453,28.543 47.46055,36.8743 57.05425,49.2598 56.39065,72.7734 -0.5634,19.8418 -5.2818,27.3181 -34.2578,54.2851 -30.3219,28.2213 -33.6016,33.6965 -33.6016,56.0782 0,20.949 4.0701,29.1969 26.1953,53.084 51.925,56.055 53.5262,83.779 7.6309,132.2558 -26.7683,28.2722 -25.33779,59.0086 5.041,108.2246 28.0002,45.367 29.7579,77.4899 6.4121,117.3281 -19.1378,32.7837 -19.1169,56.4126 0.1797,112.5118 0.884,2.57 1.7013,5.021 2.4863,7.4179 5.4552,-0.2395 10.9026,-0.3351 16.3359,-0.2734 -1.3596,-4.8382 -2.9107,-9.8265 -4.6542,-15.002 -14.5862,-43.3034 -12.6492,-60.6889 12.746,-114.373 9.755,-20.62 17.6524,-45.5999 17.6524,-55.5137 -0.082,-18.0761 -3.3735,-25.4397 -28.4199,-63.5683 -20.046,-30.5153 -17.7748,-58.4469 7.6035,-93.4864 47.3305,-65.3455 47.9571,-85.1299 4.1348,-129.9179 -23.6956,-24.2163 -28.0118,-32.2547 -28.0118,-52.1407 0,-20.6549 4.5449,-28.2455 37.4141,-62.4746 31.8594,-33.1788 37.4141,-42.1977 37.4141,-60.7812 0,-22.9958 -5.3614,-29.8579 -53.2696,-68.1777 C 1032.033,15.9095 1025.2623,8.4144 1022.459,0 Z m 179.54098,0 c 0.8109,2.4667 1.8128,5.0229 3.0176,7.6894 5.2203,11.5531 20.9478,33.9654 34.9473,49.8047 19.3863,21.9327 25.4511,33.7068 25.4511,49.4004 0,23.58 -19.1425,47.6496 -47.4628,59.6817 -47.0781,20.0057 -53.2174,55.2224 -19.2246,110.2949 16.4909,26.7198 22.2285,42.5991 22.2285,61.5312 0,23.1079 -3.0745,28.4177 -32.5489,56.1719 -41.9996,39.5521 -45.5652,55.6131 -24.2011,109.0137 23.5814,58.9462 19.4907,84.021 -22.1953,136.0254 -13.722,17.1189 -16.4199,44.0799 -9.918,104.8808 5.8498,0.7352 11.6695,1.6525 17.4551,2.7403 -0.3,-1.5399 -0.6203,-3.0915 -0.9766,-4.67 -9.755,-43.2097 -2.7056,-74.8436 24.8418,-111.4238 31.149,-41.388 40.427,-71.2832 29.9902,-96.8086 -29.1179,-71.2228 -27.1011,-89.8562 13.92,-128.6562 14.8608,-14.0567 31.221,-31.5592 36.3554,-38.8887 13.6859,-19.5374 11.63,-49.0286 -4.7949,-68.7715 -44.369,-53.3381 -35.5522,-92.898 29.1465,-130.8144 30.6051,-17.9356 39.0547,-30.4689 39.0547,-57.9239 0,-14.9661 -6.7926,-26.5195 -30.041,-51.1015 C 1209.401,35.1683 1199.1819,16.5528 1201.0605,0 Z m 189.0625,0 c -0.9828,0.8519 -1.9442,1.7256 -2.873,2.6543 -16.6772,16.6786 -11.9925,42.9645 15.6328,87.7226 12.416,20.1136 21.4082,42.469 21.4082,53.2168 0,25.2299 -22.8661,48.3424 -56.1035,56.7129 -52.3427,13.1797 -66.454,50.6852 -40.5449,107.7617 23.2886,51.3031 11.8772,92.4815 -30.9864,111.8106 -45.3787,20.4651 -55.6952,52.1288 -39.6386,121.6914 8.9768,38.882 -3.9916,76.6494 -34.2325,99.7168 -29.5901,22.5689 -34.509,35.244 -39.1308,100.8223 -0.351,4.9811 -0.6777,9.4364 -1.0039,13.6855 4.4977,1.4264 8.9649,2.9595 13.3965,4.6074 0.5384,-49.9925 10.4307,-72.115 50.5644,-115.8476 42.8375,-46.6786 49.4198,-65.6187 35.9707,-103.4649 -16.3493,-46.0125 -1.2263,-80.3468 48.1211,-109.2656 53.1012,-31.1204 62.7397,-59.9808 36.5117,-109.3125 -17.3161,-32.5686 -18.4148,-44.5189 -6.2539,-68.0352 7.9437,-15.3592 38.6429,-34.2546 72.8926,-44.8593 6.9132,-2.1405 18.9448,-10.6777 26.7363,-18.9727 20.8124,-22.1553 18.427,-47.5443 -8.0898,-86.0176 -12.2103,-17.7195 -22.2012,-38.3086 -22.2012,-45.7539 0,-23.6764 22.2468,-44.3575 58.9727,-54.8164 4.7789,-1.3609 9.2833,-2.7101 13.6269,-4.0566 z m 302.2364,0 c 1.4648,4.4821 2.3086,7.8917 2.3086,9.6855 0,6.0076 -7.9025,18.8264 -17.5625,28.4864 -15.095,15.095 -22.1387,17.5625 -50.17,17.5625 -42.4629,0 -67.1549,9.0154 -75.6308,27.6171 -9.6262,21.126 -8.7819,28.2057 8.1816,68.5098 8.2612,19.6284 15.0195,43.5131 15.0195,53.082 0,25.3158 -20.351,47.9534 -46.8222,52.0782 -52.9022,8.2468 -67.5498,15.0569 -77.5742,36.0761 -9.0249,18.9154 -8.9949,23.9013 0.3906,66.6192 9.7185,44.2701 9.6748,47.0722 -1.0547,67.8574 -9.0186,17.4749 -18.6287,24.683 -49.5137,37.1367 -50.5652,20.3882 -59.7226,35.2671 -59.7226,97.4961 -0.043,62.6767 -15.182,89.8373 -63.75,114.3594 -21.5125,10.861 -40.5418,49.9075 -47.2989,97.0469 -0.068,0.4782 -0.1483,0.9253 -0.2187,1.3984 5.0405,2.6226 10.0167,5.4056 14.9277,8.3359 0.055,-0.7873 0.093,-1.5654 0.1,-2.3261 0.1301,-21.6737 15.2502,-57.5576 31.5801,-74.9414 7.0875,-7.543 25.3517,-21.7133 40.5899,-31.4903 38.6464,-24.8007 53.5267,-53.7224 49.7324,-96.664 -4.4514,-50.3585 7.0804,-68.0077 60.373,-92.3828 67.275,-30.7703 76.7859,-49.2242 58.0918,-112.6934 -15.2615,-51.8157 10.4454,-79.5109 84.9942,-91.5664 12.0957,-1.9543 29.0874,-10.7654 38.0527,-19.7305 19.3356,-19.3357 18.6153,-41.2997 -2.9375,-89.5957 -11.9839,-26.8551 -12.8494,-33.3609 -6.4688,-48.7656 9.9105,-23.9262 24.9428,-30.7544 81.543,-37.0566 40.8012,-4.5418 49.9691,-7.6988 61.582,-21.2012 C 1703.1628,45.1642 1703.4937,40.1197 1682.4281,0 Z m 148.8515,0 c -2.4871,13.2603 -0.2139,31.6623 6.4492,55.6797 17.4723,62.9812 17.7657,73.2944 2.6368,92.5273 l -13.5567,17.2344 -53.0742,-4.0039 c -51.6597,-3.8997 -53.4916,-3.5897 -68.748,11.668 -16.685,16.6851 -16.8953,21.3718 -4.7813,106.1386 3.7201,26.0237 2.5939,29.6934 -14.2734,46.5606 -16.7396,16.7345 -21.7395,18.3144 -58.2871,18.3144 -36.1742,0 -41.6477,1.6679 -57.5391,17.5606 -16.7162,16.7124 -17.5606,20.0864 -17.5606,69.6953 0,50.8139 -0.4968,52.6212 -19.5292,71.6055 -14.8334,14.7996 -26.7979,20.4369 -49.7832,23.4687 -16.6415,2.1924 -35.8889,7.9369 -42.7735,12.7578 -16.9804,11.8942 -32.1074,45.4776 -32.1074,71.2813 0,11.677 -2.8704,28.8436 -6.377,38.1445 -9.1474,24.2631 -40.5779,54.7662 -61.0664,59.2656 -29.8231,6.5515 -56.47,35.6042 -73.4765,80.1114 -1.9088,4.9944 -3.7871,9.7042 -5.6602,14.1835 4.2866,3.2782 8.4709,6.6796 12.5645,10.1817 0.6559,-1.6762 1.3027,-3.3869 1.9375,-5.1641 14.9376,-41.8278 36.1579,-63.9844 81.0097,-84.5898 50.417,-23.1638 68.5207,-44.1213 73.0996,-84.6153 2.0233,-17.8992 7.5378,-40.19 12.252,-49.539 8.4433,-16.7398 48.2001,-39.687 69.2324,-39.9473 21.4786,-0.2719 56.6767,-19.1149 66.3731,-35.5293 7.867,-13.3137 9.263,-25.5008 6.4199,-55.9355 -3.4494,-36.934 -2.7378,-39.9146 13.9746,-58.6192 16.2231,-18.1593 21.1236,-19.9479 62.3594,-22.7793 70.7974,-4.8599 90.5986,-21.6941 81.3633,-69.1679 -12.3841,-63.6707 -11.7396,-74.9075 5.2929,-91.9414 15.9213,-15.9213 17.5252,-16.2167 67.0117,-12.4121 84.5367,6.498 103.9986,-13.0531 80.9454,-81.3145 -29.6486,-87.7986 -9.0254,-110.7687 83.2832,-92.7656 38.0517,7.4232 47.7946,7.5121 64.373,0.5859 4.5494,-1.9009 8.4208,-3.9389 11.6289,-6.2226 C 1988.8566,8.1806 1964.2195,0 1937.8262,0 Z M 27.337891,63.9726 C 10.148728,90.2261 0,122.7514 0,158.0566 v 125.8145 c 13.583789,6.5649 32.808983,4.5306 64.921875,-5.2227 45.791235,-13.9084 67.900855,-15.676 84.566405,-6.7578 17.42806,9.3348 24.34932,37.802 18.25977,75.2266 -10.57861,64.9968 14.19368,89.2669 77.72656,76.1445 45.69494,-9.4389 67.18536,-8.8824 82.92187,2.1387 14.65392,10.2637 26.22647,44.1873 21.38868,62.6875 -1.74358,6.6504 -1.3598,21.7119 0.8457,33.4746 6.13248,32.6779 30.63462,44.8242 90.64258,44.8242 34.83528,0.014 52.11309,2.7444 62.21679,9.8203 16.64994,11.6612 30.74219,42.8424 30.74219,68.0176 0,37.2542 32.97385,58.261 109.03711,69.4707 31.64998,4.6647 52.26377,23.7857 71.24414,66.0859 18.52104,41.2826 33.68238,53.5391 93.08399,75.2559 0.0364,0.013 0.0691,0.028 0.10546,0.041 0.98836,-1.3103 1.73889,-2.3225 2.88868,-3.8379 1.52809,-2.0138 4.17003,-5.0449 7.42773,-8.5898 -51.1276,-19.2063 -66.35017,-33.0632 -88.94531,-80.6699 -28.10686,-59.2117 -40.22692,-69.3239 -90.61914,-75.5723 -34.82877,-4.3198 -43.58375,-7.8727 -57.35547,-23.2852 -14.81904,-16.5875 -19.97807,-29.8302 -31.5625,-81.0097 -2.15345,-9.5116 -11.98273,-25.3629 -21.8457,-35.2246 C 510.4,529.596 508.39437,529.1036 471.44336,533.0605 c -65.21661,6.9834 -84.44477,-10.7475 -89.29688,-82.3554 -4.80396,-70.8599 -27.9524,-89.3438 -90.91796,-72.5664 -69.12536,18.4196 -89.8472,-3.1452 -83.54688,-86.9375 3.12284,-41.5142 2.13052,-47.966 -9.6582,-62.7891 -15.97072,-20.0837 -33.29758,-21.044 -81.35938,-4.5059 -42.041211,14.4639 -56.185989,14.9719 -73.763669,2.6602 C 27.169088,215.5492 25.315114,185.1795 36.621094,123.8183 43.14393,88.417 42.748742,84.1575 31.523438,69.0547 30.150001,67.2076 28.757688,65.5242 27.337891,63.9726 Z M 1985.9277,124.7422 c -16.1689,-0.2019 -25.3321,7.5496 -33.1504,23.8633 -6.9133,14.4131 -7.1528,25.6395 -1.3535,63.5195 7.2437,47.3162 5.4639,61.2189 -10.1582,79.4082 -11.2538,13.1028 -44.5903,13.7357 -79.2617,1.5019 -35.8346,-12.6436 -52.3556,-11.2799 -69.3672,5.7344 -13.2266,13.2317 -14.748,19.7496 -14.748,63.4785 0,80.2595 -11.3743,91.7953 -85.3282,86.502 -50.8789,-3.6406 -52.679,-3.3194 -66.8554,11.9785 -14.8348,16.0059 -22.0469,39.126 -22.0469,70.6719 0,22.094 -13.9079,49.4604 -31.3437,61.6718 -8.4135,5.8932 -26.3942,9.375 -48.3946,9.375 -19.2562,0 -42.711,3.9815 -52.1211,8.8477 -15.8107,8.1768 -42.373,51.0479 -42.373,68.3887 0,32.8276 -51.1632,78.9707 -87.5625,78.9707 -22.6106,0 -52.9134,21.6947 -69.8223,49.9863 -6.1833,10.3458 -12.0132,19.5609 -17.6543,27.8477 3.6864,3.9898 7.2542,8.0864 10.7149,12.2695 1.3846,-2.3119 2.7925,-4.708 4.2617,-7.2871 21.7596,-38.1976 46.8426,-55.8888 96.9785,-68.3906 45.9526,-11.4595 81.1074,-38.3706 81.1074,-62.0821 0,-45.8705 37.26,-78.3719 90.1231,-78.6191 19.346,-0.091 43.4814,-4.8913 58.2226,-11.5859 20.9985,-9.5312 26.2832,-15.5246 31.8106,-36.0547 3.5835,-13.5427 5.2561,-26.8411 3.584,-29.5528 -7.5169,-12.1622 10.0257,-49.9622 28.414,-61.2304 16.6837,-10.2246 25.8737,-11.2426 71.1797,-7.8789 50.3701,3.7396 52.5157,3.3671 67.5898,-11.7071 14.1777,-14.1868 15.5665,-19.8815 15.5665,-64.1777 0,-43.6014 1.5182,-50.1317 14.746,-63.3594 17.0493,-17.0495 31.9307,-18.2329 72.918,-5.7988 42.5669,12.9143 71.9709,11.6612 87.3574,-3.7266 11.6911,-11.6911 12.4013,-16.5256 8.1504,-55.5742 -6.7207,-61.7658 -5.0479,-77.3702 9.5762,-89.3281 16.0296,-13.1104 31.5344,-13.2807 71.0527,0.7949 v -35.1426 c 0,-2.0289 -0.045,-4.0447 -0.1113,-6.0547 -11.036,-2.4882 -23.8593,-6.737 -38.5977,-12.6386 -23.7132,-9.4954 -40.5277,-14.4641 -53.1035,-14.6211 z M 49.146484,376.5664 C 36.621947,376.8102 20.587936,382.2559 0,392.1348 v 45.3476 c 6.451521,-2.0493 11.654215,-3.2578 14.664062,-3.2578 24.639213,0 44.88294,24.868 45.078126,55.3027 0.205579,37.2281 9.597569,72.3669 21.705078,81.2188 15.357868,11.2319 51.201044,9.3732 81.134764,-4.211 60.68197,-27.5357 93.82495,-10.3949 104.29297,53.9395 6.06351,37.2515 12.69688,47.7041 36.61133,57.6973 18.06172,7.5443 25.61487,7.4566 60.8457,-0.7149 65.22311,-15.1249 86.47094,-3.9483 109.4043,57.5625 16.11255,43.2123 35.82574,53.6992 101.25586,53.6992 56.16168,0.027 77.03328,10.5808 100.66797,50.9082 19.12609,32.6364 44.59685,47.3656 98.96289,57.2246 1.86221,0.3377 3.61146,0.6814 5.38867,1.0235 2.5694,-4.8367 5.29915,-9.6069 8.15234,-14.3203 -2.44653,-0.4503 -4.96848,-0.8761 -7.60351,-1.2774 -41.19936,-6.2769 -65.6249,-22.3549 -92.76758,-61.0625 -13.60127,-19.3955 -34.11665,-41.5888 -45.58789,-49.3203 -18.11637,-12.2117 -25.31858,-13.538 -54.82031,-10.1133 -51.06767,5.9256 -81.92034,-14.1466 -98.50782,-64.0859 -12.03334,-36.2263 -39.66009,-65.1973 -62.17968,-65.1973 -9.06925,0 -28.85291,4.2126 -43.96094,9.3614 -24.40761,8.3132 -29.83925,8.3656 -48.73633,0.4687 -23.32111,-9.7433 -36.73767,-30.5038 -43.37891,-67.1152 -12.11011,-66.7521 -43.50842,-85.1012 -98.02539,-57.2871 -13.40479,6.8389 -35.09761,12.4316 -48.20703,12.4316 -33.61217,0 -45.958872,-17.5495 -51.435545,-73.1269 C 87.354537,400.4132 76.633559,376.0312 49.146484,376.5664 Z M 2077.7402,414.6582 c -2.3467,27.1521 -12.3602,42.7406 -31.3925,49.375 -15.7222,5.4806 -23.7814,3.7537 -57.75,-12.3692 -66.1548,-31.4054 -91.122,-22.6978 -102.6973,35.8165 -14.5408,73.5155 -17.1538,79.2231 -40.8027,89.2148 -20.3284,8.5944 -24.3694,8.5037 -49.1817,-1.0938 -46.2974,-17.9069 -61.757,-18.0733 -82.1816,-0.8847 -12.8868,10.8441 -21.3378,26.2962 -28.666,52.4121 -17.1276,61.0412 -44.8838,78.855 -102.7071,65.9121 -27.4004,-6.1312 -34.7625,-5.7532 -50.9492,2.6172 -10.4042,5.3804 -23.4152,17.9528 -28.9101,27.9355 -40.1415,72.9274 -61.4254,91.0959 -105.9024,90.4063 -41.3738,-0.6389 -60.2571,9.2641 -101.5058,53.2324 -3.0545,3.2552 -6.2017,6.4507 -9.4083,9.5879 2.7474,4.2495 5.3814,8.5722 7.9083,12.959 0.3016,-0.322 0.5787,-0.6077 0.8847,-0.9356 37.7735,-40.4694 55.4555,-49.4769 105.961,-53.9765 62.7495,-5.5911 80.8993,-15.7558 98.2675,-55.0293 21.6686,-48.9935 38.8839,-57.5586 111.9102,-55.6992 53.9209,1.3741 59.1099,0.4659 73.3516,-12.8555 9.8913,-9.2501 16.7414,-23.7819 19.3203,-40.9785 2.1964,-14.6552 10.4939,-34.3648 18.4336,-43.8008 20.5783,-24.4571 42.8516,-27.46 89.2128,-12.0332 62.9551,20.949 92.2913,6.9658 97.1915,-46.3203 4.0714,-44.2962 7.2843,-55.1534 20.1152,-67.9844 16.5355,-16.5354 47.9745,-15.0787 85.5527,3.9629 17.1768,8.7035 41.3694,16.0888 53.7617,16.4141 3.6959,0.097 7.0705,0.04 10.1836,-0.1934 z m -62.2812,182.498 c -23.7939,-0.097 -41.7808,20.1136 -53.5059,60.4434 -20.5548,70.705 -44.8942,81.8504 -109.2871,50.0312 -41.457,-20.4831 -44.8276,-21.1846 -63.7793,-13.2578 -15.151,6.3394 -25.632,18.6381 -43.1836,50.6797 -31.8569,58.1602 -52.4986,67.7 -106.2636,49.0957 -54.9918,-19.0325 -66.592,-13.9222 -125.1231,55.1016 -23.6542,27.8924 -55.9631,38.0774 -93.873,29.582 -34.0156,-7.6223 -65.7031,4.3179 -109.7246,41.3496 -0.4783,0.4021 -0.9245,0.7585 -1.3965,1.1524 2.0552,4.8354 3.9796,9.73 5.7715,14.6797 1.3633,-1.0882 2.7268,-2.1754 4.1308,-3.3379 36.1768,-29.9599 61.5922,-37.0794 114.7481,-32.1387 55.1325,5.1253 81.655,-3.7278 100.4726,-33.5352 29.9937,-47.5115 62.763,-58.4781 117.2774,-39.2441 29.9401,10.5631 61.9967,11.6233 78.8418,2.6074 6.5814,-3.5197 18.7022,-21.943 26.9414,-40.9375 15.0403,-34.6844 37.2067,-54.804 60.3652,-54.791 6.0987,0 28.6621,8.3573 50.1406,18.5625 64.3357,30.5674 95.7672,22.7338 108.4473,-27.0273 11.0848,-43.5 19.0423,-58.0025 36.8906,-67.2305 19.0621,-9.8583 30.8353,-8.1995 64.3906,13.3789 v -43.6621 c -5.3268,-3.6089 -10.9147,-7.6295 -16.8359,-12.1328 -16.922,-12.8702 -32.0976,-19.3146 -45.4453,-19.3692 z M 0,604.4121 v 123.9941 c 17.362813,27.5437 47.505235,26.4366 93.886719,-2.1914 45.174481,-27.8832 72.543221,-29.0601 93.601561,-4.0332 8.14281,9.6769 16.55552,26.9193 18.69336,38.3203 2.13915,11.3984 10.45802,27.8133 18.48633,36.4766 18.92701,20.4207 45.98779,20.6346 93.27539,0.7305 19.62705,-8.2613 40.50016,-15.013 46.38281,-15 20.70703,0.043 49.38591,23.6986 64.2168,52.9648 17.92264,35.37 39.24087,46.444 78.75391,40.9063 14.81528,-2.0741 39.05582,-5.4702 53.87109,-7.5469 34.73379,-4.8665 58.08304,4.9189 84,35.1973 24.7316,28.8928 53.80323,40.053 105.35351,40.4433 3.31858,0.025 6.50763,0.085 9.61329,0.1719 1.66472,-5.1457 3.46577,-10.2472 5.41601,-15.2949 -2.48865,-0.1199 -5.07275,-0.2217 -7.7793,-0.3106 -50.17233,-1.6577 -76.54086,-13.9194 -107.375,-49.9297 -10.45761,-12.2155 -30.26929,-27.2857 -44.02148,-33.4883 -21.66861,-9.7707 -28.56546,-10.3239 -51.66406,-4.1445 -56.11105,15.0065 -91.2271,2.3345 -113.64258,-41.0117 -4.74151,-9.1695 -17.01817,-25.0683 -27.2832,-35.332 -22.48835,-22.4897 -52.4934,-24.9001 -82.46485,-6.625 -25.45505,15.4879 -61.32613,15.501 -81.03515,0 -8.364,-6.5802 -20.21908,-25.9325 -26.34375,-43.0078 -14.31953,-39.9216 -37.60018,-65.1875 -60.0586,-65.1875 -9.85776,0 -30.69649,9.3884 -49.33984,22.2285 C 56.852393,712.4751 27.631436,701.7174 8.7070312,633.7734 5.3938987,621.8776 2.5912425,612.3105 0,604.4121 Z m 2063.2188,167.1601 c -18.0725,0.4087 -32.4993,16.5342 -48.7852,49.084 -23.3094,46.5889 -36.1374,58.1602 -64.4746,58.1602 -19.5464,0 -29.746,-4.7596 -53.9805,-25.1973 -23.5397,-19.847 -34.4172,-25.0564 -51.2637,-24.5879 -21.7687,0.6154 -22.091,0.8851 -82.9316,69.0957 -23.0726,25.8663 -49.2955,27.4575 -87.9629,5.3321 -50.1683,-28.7028 -66.4645,-25.7919 -122.5117,21.8886 -38.0414,32.363 -65.2982,38.001 -108.5391,22.4532 -37.1342,-13.3548 -56.5598,-9.8668 -117.8281,21.1445 1.2612,5.4046 2.3325,10.8107 3.2383,16.2812 0.9469,-0.4754 1.8177,-0.9072 2.8086,-1.4062 46.6709,-23.5071 80.3521,-26.776 122.539,-11.8906 47.4997,16.7579 67.9249,12.6707 105.1387,-21.0313 29.5044,-26.7199 36.1697,-30.039 60.3145,-30.039 18.2191,0 38.8818,5.9276 62.8496,18.0273 56.4492,28.4945 82.5707,22.7458 108.8066,-23.9355 12.4561,-22.163 41.2212,-42.1543 60.6504,-42.1543 7.461,0 20.7347,7.9831 82.3535,49.5312 34.7429,23.4292 63.8681,9.2342 89.6485,-43.6914 15.8727,-32.5861 33.5673,-47.9002 54.4511,-46.9473 v -57.4062 c -5.1326,-1.9006 -9.9456,-2.8142 -14.5214,-2.711 z M 116.2793,806.7187 c -8.95734,0 -27.111122,11.4249 -47.517581,29.9043 C 38.146508,864.3485 17.821711,876.332 0,871.041 v 55.7793 c 13.774318,-0.587 25.412797,-6.8207 43.210938,-22.9258 36.407115,-32.9433 53.015935,-43.1055 70.460942,-43.1055 21.40316,0 40.10493,14.6822 54.40234,42.7032 27.73081,54.3595 57.81224,61.4492 113.88672,26.8379 18.34148,-11.3204 40.46956,-22.3739 49.17578,-24.5586 22.37255,-5.6132 52.58429,10.6734 72.79687,39.2422 25.00354,35.3401 56.2862,38.6236 124.60352,13.0878 41.59246,-15.5478 64.27685,-11.4184 104.03711,18.9317 25.99373,19.8418 32.30055,21.981 65.83594,21.7988 16.28976,-0.064 36.52859,-1.5908 50.21093,-3.6387 0.73526,-5.3152 1.60341,-10.5977 2.61914,-15.8418 -2.21647,0.043 -4.36161,0.084 -6.72656,0.1348 -74.17005,1.6031 -67.39074,3.5901 -124.94336,-36.5996 -33.34673,-23.286 -64.536,-26.7409 -96.07812,-10.6504 -13.65721,6.9665 -35.85763,12.668 -49.33789,12.668 -21.89501,0 -28.94368,-4.1641 -66.08985,-39.0528 -36.97703,-34.7272 -44.26155,-39.0507 -65.79883,-39.0507 -18.42345,0 -30.80551,5.0292 -51.76367,21.0273 -43.1043,32.9017 -79.41171,24.8465 -108.01562,-23.9609 -19.54636,-33.3558 -47.10957,-57.1485 -66.20703,-57.1485 z m 1961.4609,151.8399 c -14.9494,6.5624 -31.0005,20.8408 -47.2285,42.334 -27.3456,36.2198 -33.5415,40.1386 -63.5195,40.1386 -16.9896,0 -24.6773,-5.1967 -48.4785,-32.7675 -43.0641,-49.8899 -68.7681,-50.0637 -121.4024,-0.8321 -15.6766,14.6643 -35.7352,28.4775 -44.5742,30.6973 -19.7311,4.951 -56.0753,-6.3373 -66.2559,-20.5801 -26.5408,-37.141 -64.8912,-38.4697 -121.3261,-4.207 -43.7744,26.5741 -72.1992,28.2501 -112.7754,6.6504 -34.6687,-18.4546 -59.684,-18.8959 -108.3496,-1.8985 -4.0789,1.4245 -8.0934,2.7178 -12.0801,3.8926 0.1564,4.3085 0.24,8.7237 0.252,13.2754 9e-4,0.3402 0,0.6725 0,1.0117 54.3016,-17.4808 70.5554,-16.7745 117.1601,5.0332 57.1583,26.7483 74.4471,28.1418 103.4258,8.3457 34.5347,-23.5892 62.5821,-34.0837 79.6406,-29.8027 8.1676,2.0507 32.4316,15.7655 53.918,30.4766 54.2685,37.1605 76.497,37.0259 111.6133,-0.6758 20.132,-21.6167 30.8118,-28.1371 50.375,-30.7617 23.9705,-3.2139 26.2855,-1.9605 67.1738,36.4414 57.5019,54.0082 77.0396,53.824 116.4941,-1.0938 15.6631,-21.8023 30.8862,-34.6705 45.9414,-38.6113 z M 98.810547,970.0117 C 81.689064,969.9177 66.201279,982.7792 47.328125,1008.3262 28.648055,1033.6127 14.313536,1048.6779 0,1052.7754 v 56.2871 c 9.1133375,-3.7216 18.329354,-10.7426 27.525391,-21.0938 55.980798,-63.0892 60.95827,-66.716 84.435549,-62.9062 16.95832,2.7507 29.60452,11.6306 53.63867,37.6621 30.26162,32.7768 32.36914,33.9386 55.88672,30.7832 18.50283,-2.4814 32.56963,-10.7087 57.92578,-33.8828 29.41976,-26.8902 36.63424,-30.6055 59.38672,-30.6055 21.30688,0 30.98899,4.2049 54.61719,23.7305 43.04313,35.5691 66.65644,34.7417 128.10742,-4.4863 27.94695,-17.8379 35.83099,-20.179 57.85742,-17.1602 14.02675,1.9232 38.39762,10.3487 54.15625,18.7285 35.49497,18.8736 38.79825,18.859 100.06055,-0.4922 4.37803,-1.3838 8.41602,-2.6202 12.26562,-3.7636 -0.14765,-5.6078 -0.15128,-11.1931 -0.002,-16.75 -2.60541,0.7483 -5.08219,1.5857 -7.42578,2.5234 -37.45586,14.9857 -73.03296,12.3861 -114.08789,-8.3379 -48.12557,-24.2931 -72.79086,-23.6443 -114.1543,3.0039 -44.5382,28.6937 -61.64023,27.665 -111.87891,-6.7305 -23.90794,-16.3662 -49.85301,-28.9986 -63.23437,-30.8007 -20.8892,-2.8015 -25.19256,-0.597 -54.14649,27.7558 -28.41524,27.8245 -34.06504,30.8028 -58.44921,30.8028 -24.87991,0 -29.36641,-2.5312 -57.38868,-32.3633 -27.9815,-29.7877 -48.05906,-44.5682 -66.285153,-44.668 z m 1276.960953,96.1016 c -12.6154,-0.1657 -26.1044,1.4457 -40.8789,4.7519 -1.4912,0.3337 -2.984,0.641 -4.4785,0.9356 -0.5122,5.3572 -1.1482,10.6377 -1.9297,15.8632 3.6972,-0.056 7.5492,-0.1248 11.7246,-0.2148 l 62.1738,-1.3516 37.5274,25.0586 c 55.4499,37.033 73.9163,41.7809 105.25,27.0606 59.3651,-27.887 77.7178,-24.4509 128.1816,24.0078 45.5935,43.7795 67.1845,49.5967 98.5352,26.5449 61.3977,-45.1446 88.8281,-40.4863 128.4765,21.8223 24.2605,38.1285 36.005,46.7344 63.7774,46.7344 14.4314,0 26.0203,-6.9926 49.8086,-30.043 25.5382,-24.7446 34.8151,-30.0391 52.6347,-30.0391 3.9713,0 7.6702,0.3313 11.166,1.0313 v -60.4903 c -16.6626,2.4855 -32.3702,12.955 -60.7793,39.2715 -23.4447,21.7155 -32.3346,26.1953 -51.9785,26.1953 -25.1012,-10e-5 -38.2804,-11.4561 -69.0508,-60.0019 -14.6955,-23.1871 -36.7132,-33.7684 -58.625,-28.1836 -7.8996,2.0154 -29.1401,13.2184 -47.2031,24.8965 -51.0116,32.9824 -72.9894,28.8797 -121.4961,-22.6797 -28.0327,-29.7985 -28.3124,-29.9272 -58.3086,-26.375 -16.5758,1.9649 -37.4425,8.3562 -46.3672,14.2051 -10.5956,6.9404 -28.1052,10.6329 -50.4257,10.8281 -30.4333,0.1717 -37.3352,-2.2533 -62.7774,-22.0625 -23.6781,-18.4361 -47.2031,-27.4011 -74.957,-27.7656 z m -626.91994,15.7031 c -46.42322,26.1851 -66.92743,28.5908 -119.23828,14.0234 -54.68092,-15.2265 -81.48044,-10.6791 -112.68945,19.1309 -41.66909,39.8019 -61.19201,42.8429 -110.05664,17.1406 -17.84963,-9.3893 -39.43232,-18.8244 -47.96289,-20.9648 -26.21232,-6.5789 -51.70385,6.6808 -68.74414,35.7597 -18.61213,31.758 -35.08101,44.3321 -58.06641,44.3321 -20.07986,0 -32.39873,-6.0472 -68.57031,-33.6582 -18.60563,-14.2037 -33.12207,-20.4161 -47.70703,-20.4161 -30.214822,0 -40.947154,7.8832 -54.902348,40.3243 -12.915542,30.0197 -33.96249,53.8869 -49.382812,55.9961 -4.1821442,0.5717 -7.9371049,0.8397 -11.53125,0.6718 v 58.9063 c 2.1432738,0.2111 4.4016939,0.3105 6.8554688,0.3105 24.0861922,0 46.1539452,-20.6714 61.6445312,-57.7422 23.274268,-55.7075 64.52423,-66.0353 107.07422,-26.8125 45.5349,41.971 78.61302,38.4455 115.90234,-12.3515 11.84206,-16.1333 27.2985,-33.3739 34.34571,-38.3106 20.31277,-14.2271 50.55683,-10.7942 86.5957,9.8243 30.60123,17.5074 34.49121,18.3124 56.60742,11.6855 13.06389,-3.914 38.51508,-20.4859 56.55859,-36.8262 18.04221,-16.3377 38.85733,-29.9058 46.25586,-30.166 7.40113,-0.2513 18.67369,-1.4337 25.05469,-2.6308 6.3797,-1.1945 20.90175,1.7143 32.27539,6.4668 36.88704,15.4117 70.46917,10.1965 122.11914,-19.5274 -0.42452,-2.3264 -0.83482,-4.6711 -1.22461,-7.0605 -0.44133,-2.705 -0.83933,-5.407 -1.21289,-8.1055 z m 572.29494,40.1191 c -1.4108,5.0406 -2.9647,10.0929 -4.6875,15.1875 1.7313,0.037 3.4804,0.062 5.2695,0.062 45.4647,0 60.9715,7.2047 105.3262,48.9336 39.1136,36.8014 57.0154,44.7042 88.0566,38.875 57.1152,-10.7296 62.9831,-10.8076 81.8164,-1.0683 10.593,5.4767 28.7822,24.8478 40.4239,43.0449 21.2419,33.2076 50.0921,56.4355 70.2148,56.4355 5.9347,0.013 23.4868,-6.7347 39.0059,-14.9961 52.1072,-27.7399 81.3242,-16.6442 105.9218,40.2266 9.008,20.8319 22.0628,43.9609 29.0098,51.3945 17.3279,18.5315 51.9702,18.2487 74.6602,-0.625 38.2223,-31.797 69.7591,-36.8211 90.457,-14.4121 6.8651,7.435 18.3155,33.283 25.4434,57.4395 1.8789,6.3697 3.7645,12.2228 5.6757,17.6562 v -121.1035 c -16.7267,-28.8549 -44.9689,-28.5493 -89.6347,-0.9805 -43.5884,26.9032 -60.3106,30.7445 -82.9356,19.0469 -13.4971,-6.9809 -21.5543,-18.3771 -31.1465,-44.0508 -7.1149,-19.0467 -17.1578,-39.3067 -22.3144,-45.0254 -16.5862,-18.3844 -44.3606,-19.0775 -84.6817,-2.1074 -20.262,8.5279 -43.8119,15.5078 -52.3359,15.5078 -26.0562,0 -48.6841,-16.0152 -61.6738,-43.6484 -21.8391,-46.4601 -47.2135,-56.5574 -109.293,-43.5 -52.2711,10.9975 -77.1633,4.5474 -107.0488,-27.7363 -31.477,-34.0038 -44.9989,-39.4972 -108.4238,-44.0293 -2.495,-0.1784 -4.7704,-0.3521 -7.1055,-0.5274 z m -561.09962,10.5801 c -51.37645,35.7324 -54.82713,35.3681 -103.60157,32.3633 -60.62733,-3.7343 -87.44471,3.1867 -105.40625,27.1973 -42.65161,57.0166 -61.93929,64.3883 -122.87109,46.9628 -22.60546,-6.4642 -46.98089,-11.7539 -54.17383,-11.7539 -19.79099,0 -47.05246,26.3969 -55.14062,53.3926 -15.01175,50.1072 -55.87612,61.2133 -113.02149,30.7188 -60.39572,-32.229 -90.85709,-20.0745 -107.318358,42.8144 -9.013294,34.4358 -30.685733,59.3223 -51.66211,59.3223 -11.483513,0 -22.729109,-4.3497 -46.851562,-19.4121 v 43.3066 c 5.6187347,3.6876 11.462809,7.9326 17.539062,12.75 31.532883,24.9983 48.682928,27.1966 70.304688,9.002 12.73729,-10.7191 21.22706,-26.2803 28.52539,-52.291 18.99988,-67.7161 53.53829,-82.2821 110.76953,-46.7051 40.45639,25.1492 65.4402,21.3207 90.98633,-13.9453 9.81223,-13.5453 17.83789,-28.0843 17.83789,-32.3106 0,-4.2262 9.10535,-17.3363 20.23438,-29.1367 22.99841,-24.3829 46.9182,-27.9281 83.97851,-12.4453 46.24925,19.3252 78.25161,7.1053 112.76172,-43.0567 25.15447,-36.5581 49.8827,-46.5486 102.39844,-41.375 44.76625,4.4119 64.46764,-2.4382 110.11328,-40.0058 -2.00896,-5.2433 -3.79419,-10.3452 -5.40234,-15.3926 z m 543.59572,36.9668 c -2.2342,4.9689 -4.6217,10.024 -7.1641,15.1816 2.8621,0.3257 5.6996,0.5038 8.5195,0.5235 28.9252,0.09 64.6389,28.0704 96.0547,75.2578 23.1793,34.8183 43.7086,44.9336 91.1797,44.9336 57.4967,0 71.3266,9.1303 98.1621,64.8066 16.1855,33.577 27.6135,49.2537 41.8106,57.3496 18.3532,10.4719 21.2474,10.5674 47.6328,1.5762 34.7976,-11.8564 51.797,-12.0534 73.4707,-0.8476 18.2376,9.4336 25.6698,24.4578 36.9316,74.6718 12.9623,57.8064 40.32,71.153 95.2832,46.4864 42.1388,-18.9101 60.0381,-19.7336 77.4063,-3.5508 14.2142,13.2421 15.8537,18.5568 24.7265,80.1523 9.8643,68.4574 27.6295,78.5888 90.084,47.9492 v -44.5332 c -11.7657,3.6096 -18.5082,3.4005 -25.4765,0.75 -22.6446,-8.6086 -32.1968,-28.3798 -36.2149,-74.9531 -6.031,-69.923 -31.0775,-83.6011 -99.9765,-54.6015 -19.627,8.2608 -42.7378,15.0195 -51.3516,15.0195 -21.3745,0 -50.8203,-30.1473 -50.8203,-52.1074 -0.1115,-56.7655 -27.354,-84.6053 -76.0625,-77.7364 -14.3208,2.0207 -37.758,5.3282 -52.0801,7.3477 -39.9268,5.6328 -60.2413,-7.7384 -76.082,-50.0762 -7.1123,-19.0077 -15.9968,-38.2524 -19.7442,-42.7676 -11.8849,-14.3195 -36.1431,-20.4746 -77.3789,-19.6679 -60.7926,1.205 -89.9747,-14.2818 -113.5547,-60.2539 -13.1368,-25.6151 -47.3465,-44.251 -92.7382,-50.5254 -0.8754,-0.121 -1.7462,-0.2531 -2.6172,-0.3848 z m -523.87698,10.9024 c -40.65416,42.5643 -49.41665,46.726 -108.44921,52.6777 -56.85649,5.7318 -73.1056,15.5654 -94.91993,57.4648 -26.38018,50.6654 -39.0361,55.6982 -126.98046,50.4844 -43.44391,-2.5751 -62.33599,8.9864 -71.82032,43.9648 -11.94356,44.0423 -18.8579,58.8025 -31.78125,67.8536 -16.0527,11.237 -43.63433,11.1477 -75.9375,-0.2481 -35.86582,-12.6553 -67.12731,-11.5272 -82.70117,2.9824 -12.27145,11.4322 -14.71917,19.8138 -21.91211,75.1192 -3.44553,26.4882 -25.78575,51.0703 -46.41601,51.0703 -6.69719,0 -30.656256,-8.1097 -53.242191,-18.0234 C 36.955916,1551.1606 15.585649,1545.0205 0,1546.123 v 100.1992 c 1.3124872,-15.4011 5.0211023,-22.5327 14.261719,-31.7734 19.387636,-19.3889 39.938847,-18.544 84.232422,3.4629 44.348229,22.0264 53.798369,22.1777 74.781249,1.1973 13.29809,-13.3006 17.9574,-25.6278 23.27149,-61.5821 5.35826,-36.2445 9.67864,-47.57 22.29882,-58.4687 18.20614,-15.7235 42.53605,-17.2276 72.98242,-4.5059 52.96076,22.1291 84.39013,5.1179 101.54102,-54.9551 16.18412,-56.6835 48.97761,-80.7791 92.82227,-68.2031 50.27253,14.4172 78.48493,-1.3939 108.46679,-60.7851 21.50335,-42.5982 48.73474,-59.3828 96.33203,-59.3828 37.92606,0 59.73714,-12.3571 96.74024,-55.2598 -2.86154,-5.4579 -5.51314,-10.6746 -7.96485,-15.6777 z m 500.62498,34.7011 c -1.0833,1.9317 -2.1773,3.8729 -3.3008,5.8399 -1.5544,2.7216 -2.8998,5.0222 -4.3867,7.5957 35.5048,14.5899 59.9058,39.5711 77.9824,79.4375 21.2965,46.9689 47.1783,69.5215 79.7872,69.5215 29.3522,0 62.7512,14.9595 74.9433,33.5664 4.9549,7.5626 12.8249,30.116 17.4922,50.123 4.666,20.0043 11.8777,41.8054 16.0234,48.4414 12.4496,19.9355 40.2544,29.7495 69.1563,24.4121 58.4438,-10.7946 82.0576,10.6967 87.2519,79.3965 3.8438,50.8036 11.4829,66.9512 36.5918,77.3516 14.27,5.9114 24.5081,5.3556 55.9942,-3.0332 66.666,-17.765 88.747,3.6922 82.6094,80.2656 -4.0181,50.1254 2.0853,73.7183 21.8007,84.2695 10.4199,5.5769 22.5334,3.8922 63.2305,-8.7969 53.6023,-16.7138 76.7368,-15.9336 86.8301,2.9258 7.8187,14.6097 7.3834,53.071 -1.1211,99.2305 -6.0818,33.0019 -5.6794,39.7984 3.1426,53.2617 7.1003,10.8383 18.085,15.9114 33.3222,15.2324 v -230.1113 c -16.7519,-6.4271 -43.5231,-3.4735 -82.6152,8.7246 -40.161,12.5305 -45.529,12.9625 -60.0801,4.8067 -25.4498,-14.3104 -32.3155,-35.014 -25.4492,-77.6485 11.2501,-69.854 -14.0689,-91.8515 -86.1504,-74.8515 -49.8302,11.7524 -54.6529,11.2447 -76.1875,-7.9961 -17.6688,-15.7912 -18.7469,-19.1922 -18.1875,-57.0606 0.5452,-36.3928 -1.0779,-42.1489 -16.8574,-59.8086 -17.2954,-19.3459 -17.9759,-19.541 -72.5137,-19.541 -54.3726,0 -55.2696,-0.2384 -72.2695,-19.2617 -9.6145,-10.7582 -18.7625,-29.3219 -20.7285,-42.0567 -9.072,-58.7862 -21.6698,-70.3953 -89.1387,-82.1269 -39.3152,-6.8337 -50.3336,-11.4342 -67.707,-28.2754 -11.414,-11.0627 -23.4404,-30.1022 -26.7285,-42.3086 -7.6946,-28.5751 -35.01,-52.1865 -82.7364,-71.5254 z m -474.3613,14.2793 c -18.81371,31.5956 -46.03244,50.957 -85.55469,61.0488 -65.14503,16.6331 -82.12129,31.8629 -93.70313,84.0625 -4.23925,19.1 -22.22093,42.2627 -40.42578,52.0723 -6.02969,3.2504 -32.69402,8.1014 -59.2539,10.7793 -63.86338,6.4383 -76.08324,17.5575 -79.71875,72.5547 -2.28487,34.579 -4.67662,40.7171 -21.87305,56.0996 -18.96084,16.961 -20.2064,17.1984 -69.17773,13.2246 -38.86374,-3.1528 -53.7406,-2.04 -67.42774,5.0371 -22.5521,11.6624 -25.02734,18.9984 -25.02734,74.2168 0,73.0133 -19.17174,84.8467 -102.74414,63.4317 -33.70975,-8.6385 -42.50597,-8.983 -58.65235,-2.295 -24.221495,10.0335 -28.459787,26.8541 -20.208981,80.17 6.773961,43.7602 5.339993,54.6024 -9.492188,71.873 C 61.829522,1884.3807 41.263049,1885.0927 0,1873.1328 v 41.4961 c 11.123806,2.1471 23.814089,6.3154 37.992188,12.5859 75.523272,33.4 101.019952,11.2723 87.521482,-75.9629 -5.79938,-37.478 -5.60477,-49.0506 1.05469,-62.9433 11.46342,-23.9222 34.59662,-30.7143 69.85352,-20.5156 15.61806,4.5177 39.50027,9.3642 53.07031,10.7539 21.27174,2.1925 26.45298,0.2851 37.55078,-13.8223 10.85186,-13.7952 12.87305,-24.3349 12.87305,-67.084 0,-48.0489 0.92687,-51.6481 17.5625,-68.2851 19.72984,-19.7272 24.79514,-20.4536 73.10937,-10.4747 30.20697,6.239 36.24095,5.8249 50.42773,-3.4707 19.20678,-12.5851 33.13477,-43.1442 33.13477,-72.707 0,-31.4561 14.51762,-60.9639 35.27539,-71.6973 10.71134,-5.5393 33.34754,-9.4101 55.00977,-9.4101 32.18474,0 38.89218,-2.0843 53.40429,-16.5977 9.18505,-9.185 22.58652,-34.6001 30.00977,-56.9101 8.88187,-26.6886 19.42024,-45.3616 31.19336,-55.2676 16.69417,-14.0475 51.19762,-27.2495 71.47656,-27.4316 14.46305,-0.1015 36.65668,-21.1477 64.30469,-60.7442 -3.08331,-5.2998 -6.00316,-10.377 -8.79492,-15.2793 z m 448.166,30.3164 c -2.3326,4.0426 -4.819,8.4194 -7.3984,13.0371 23.1299,16.6462 38.7205,40.6747 47.8027,73.4551 19.8223,71.5509 31.4775,86.838 73.3731,96.2481 52.1826,11.7237 73.4765,39.8644 73.4765,97.1074 0,35.9908 12.2291,68.5759 29.1367,77.623 6.6711,3.5692 24.6069,6.4903 39.8594,6.4903 60.7483,0 84.8705,31.4009 74.6367,97.1445 -10.6346,68.3057 10.5592,93.6026 72.5371,86.5918 27.0971,-3.0655 40.1731,-1.7352 54.2207,5.5293 28.8056,14.896 32.3221,32.5928 17.7891,89.5664 -9.47,37.1306 -11.0319,52.8795 -6.4375,64.9648 10.1271,26.634 25.258,30.7494 82,22.3086 44.3275,-6.5957 51.8465,-6.328 65.0313,2.3106 13.4608,8.82 19.6279,17.248 18.8261,33.8379 h 46.9395 c 14.6855,-39.4852 13.1536,-63.5489 -4.5977,-75.1797 -12.2963,-8.0555 -24.7433,-8.9409 -75.2617,-5.3613 -52.4871,3.7214 -62.0335,2.932 -71.8457,-5.9473 -18.3207,-16.5797 -19.9854,-37.512 -6.4648,-81.1992 20.8645,-67.4143 4.2215,-87.526 -70.7344,-85.4766 -75.4452,2.061 -96.7204,-20.4425 -84,-88.8457 10.9196,-58.7147 -3.0883,-75.1558 -72.3985,-84.9707 -21.856,-3.0967 -46.1375,-9.8225 -53.9589,-14.9492 -20.1502,-13.2018 -32.1922,-45.4032 -27.6368,-73.8887 6.9028,-43.1656 -14.4001,-64.2009 -94.1679,-92.9883 -33.8347,-12.2117 -52.0171,-35.6185 -59.8828,-77.0898 -6.2062,-32.7277 -24.6993,-57.3275 -60.8438,-80.3184 z m -417.28124,22.8321 c -13.69434,28.8277 -31.54946,43.2942 -74.54297,64.3085 -24.47396,11.9631 -49.56939,28.814 -55.76953,37.4473 -6.20144,8.6347 -13.22756,32.2609 -15.61523,52.502 -5.1618,43.7771 -20.85722,63.9755 -57.26563,73.6875 -86.51827,23.0804 -101.88454,37.511 -95.93554,90.1152 7.63677,67.4873 -7.90994,84.3449 -82.8711,89.8516 -38.4734,2.8275 -49.57459,6.0381 -62.33789,18.0273 -13.14325,12.3392 -15.04374,18.2954 -12.38672,38.6211 11.48554,87.8728 11.45431,89.5236 -1.88281,103.6387 -11.63519,12.321 -18.27782,13.5176 -74.49023,13.5176 -53.80523,0 -63.40051,1.5692 -74.86524,12.248 -16.23617,15.1276 -16.42431,26.7937 -1.13281,70.3027 13.41602,38.1678 16.18961,63.9482 7.27539,79.1153 h 54.54492 c -1.88284,-8.4238 -4.4903,-17.8811 -7.82617,-28.5235 -15.64934,-49.9224 -15.06408,-64.4751 3.32812,-82.8672 14.75672,-14.7567 16.96585,-15.1234 66.41602,-11.0039 48.10734,4.0064 52.02453,3.4383 65.8418,-9.541 16.74752,-15.7326 18.93438,-40.4689 7.83398,-88.5605 -3.78124,-16.3404 -5.05186,-36.9078 -2.84375,-45.7051 5.76424,-22.9646 36.76894,-40.3473 69.78125,-39.1113 42.62156,1.5863 47.70666,0.361 63.35742,-15.291 13.43342,-13.4295 14.74805,-19.487 14.74805,-67.7559 0,-58.3788 6.03058,-73.2042 36.11133,-88.7598 9.54939,-4.938 26.75207,-8.9785 38.22851,-8.9785 41.61183,0 63.91725,-32.0284 73.22071,-105.1328 3.13455,-24.6392 8.07724,-34.0773 27.51562,-52.5684 13.03135,-12.3977 28.31055,-22.5644 33.95508,-22.5644 23.79151,-0.05 48.38182,-22.6775 66.30078,-60.7754 -3.08273,-5.9667 -5.75751,-11.0141 -8.69336,-16.2441 z m 389.37694,28.6738 c -2.8679,5.7734 -5.3384,10.8724 -7.5058,15.5332 10.3026,17.4098 15.6044,38.3806 18.6425,68.5254 6.4135,63.6083 16.496,81.1725 56.834,99.0117 49.2302,21.7714 58.2322,40.106 53.3633,108.668 -3.6525,51.4216 -3.0858,55.2803 10.3906,70.8086 9.1056,10.4915 26.0515,19.5149 46.9121,24.9746 58.6794,15.3592 74.299,48.5676 51.9434,110.4336 -23.2326,64.2889 1.9708,96.6596 75.2363,96.8418 26.8592,0.042 53.4453,22.4954 53.4453,45.1386 0,8.5982 -8.1097,34.6965 -18.0234,57.9903 -2.59,6.0866 -4.875,11.6558 -6.8691,16.7832 h 43.7421 c -0.3533,-10.8893 4.7653,-22.9733 17.2872,-47.7813 20.2516,-40.1193 22.2368,-57.4021 8.7929,-76.5957 -9.4531,-13.4972 -32.6816,-21.5391 -81.5097,-28.2285 -50.1085,-6.8637 -69.2815,-39.7582 -50.8633,-87.2461 17.9784,-46.3612 18.0418,-56.2391 0.5058,-77.0801 -11.708,-13.9123 -27.158,-22.3117 -57.8945,-31.4668 -57.6893,-17.1782 -67.1704,-32.2498 -62.2441,-98.916 3.2686,-44.2181 2.4456,-49.3678 -10.2969,-64.3769 -7.6171,-8.9729 -30.0398,-25.2955 -49.8281,-36.2696 -46.0632,-25.5436 -60.5287,-53.3519 -63.0547,-102.5976 l -6.4336,-33.4551 z m -358.58202,35.3418 c -10.51025,15.4905 -26.64275,29.6451 -52.30273,47.1328 -41.48302,28.2708 -50.11527,44.6563 -48.29492,91.7109 2.13654,55.2925 -9.48779,72.4067 -68.06836,100.2129 -35.9504,17.065 -47.54371,25.8718 -55.20508,41.9414 -8.98466,18.8619 -8.92555,22.7767 0.83203,53.7266 18.99207,60.2566 5.36958,81.6042 -63.63476,99.7207 -46.51613,12.2103 -70.85157,30.9453 -70.85157,54.5488 0,6.9926 6.82348,29.7716 15.16407,50.6192 25.55407,63.8763 11.43963,83.3368 -67.5293,93.0957 -56.91581,7.036 -79.60701,17.3452 -76.67188,46.6582 h 76.00977 c 14.91194,-11.0393 38.21726,-17.5078 65.87109,-17.5078 46.11407,-0.013 62.54742,-13.1342 61.44141,-49.0469 -0.4437,-14.3325 -6.46703,-38.2278 -13.38672,-53.0977 -25.65412,-55.135 -8.33137,-92.228 46.26367,-99.0527 37.45846,-4.6829 56.31956,-14.9385 66.53125,-36.1856 7.36729,-15.3318 7.24237,-23.5852 -0.96289,-62.8496 -8.05562,-38.558 -8.25042,-48.0523 -1.33203,-64.6113 8.35619,-20.003 39.91182,-43.6855 58.30664,-43.6855 5.72911,-0.013 19.16365,-7.8375 29.85156,-17.3907 18.92571,-16.9063 19.52104,-18.9567 22.62696,-77.6855 3.65763,-69.1761 11.39524,-84.7652 53.83203,-108.4688 12.84055,-7.1712 22.68333,-14.9864 30.42969,-24.8964 -2.66915,-8.3191 -5.64123,-16.5963 -8.91993,-24.8887 z m 20.58008,70.834 c -16.73335,16.8404 -33.81261,39.6779 -38.76367,52.0488 -8.51884,21.5046 -8.50896,26.5565 0.18164,56.4551 15.04428,51.7495 2.67029,75.7701 -60.79883,118.0234 -41.5676,27.675 -47.28454,52.9516 -22.87695,101.1192 26.79917,52.8849 12.77883,80.826 -53.76758,107.1542 -24.34123,9.63 -38.77046,19.6704 -46.69336,32.4883 -13.96689,22.5976 -10.91639,39.6304 13.20508,73.6953 20.79506,29.3688 28.10264,50.6942 20.45508,67.5489 h 55.11719 c -4.17324,-14.8617 -14.6348,-36.0264 -31.00196,-62.6114 -28.5857,-46.4288 -14.60634,-76.8861 45.31446,-98.7343 29.70861,-10.831 38.35011,-17.0521 44.71289,-32.1836 9.17594,-21.8233 6.98711,-38.9707 -9.75391,-76.3614 -22.81625,-50.957 -13.00902,-85.7398 30.42188,-107.8964 46.71898,-23.8352 56.90734,-53.2154 41.53906,-119.793 -7.90107,-34.2303 -2.61833,-61.1991 16.87304,-84.3281 -1.12629,-9.0696 -2.51293,-17.9235 -4.16406,-26.625 z m 301.64254,58.7773 c -2.6644,7.6594 -0.5206,18.9872 -1.7109,34.6465 6.5074,14.0031 10.1384,13.2678 19.6133,19.5371 26.3725,17.454 47.2558,47.2666 47.2558,67.5742 0.013,7.3204 -4.3846,26.2441 -9.7753,42.0547 -20.249,59.4161 -8.5893,97.8583 33.5078,110.4707 32.6663,9.7861 55.5976,34.9066 55.5976,60.9043 0,11.306 -8.6335,37.6624 -19.1875,58.5684 -30.0781,59.5839 -18.3263,89.9035 39.8965,102.9336 42.0345,9.4063 62.3957,26.6286 61.582,53.0664 h 55.92 c 12.6289,-31.6903 -7.0749,-52.7659 -63.1036,-71.4102 -65.9415,-21.9446 -78.6552,-50.9453 -46.2675,-105.543 31.0332,-52.3166 22.9092,-75.8335 -37.6465,-109.0019 -59.0477,-32.3435 -69.9049,-58.9128 -46.0821,-112.7715 17.3939,-39.3205 9.5117,-59.9105 -39.3789,-102.834 -10.1827,-8.94 -18.4627,-16.7696 -25.1211,-24.1445 -6.1666,-6.8306 -18.0069,-17.3004 -25.0996,-24.0508 z m -265.21676,172.9551 c -3.78093,4.4145 -7.94199,8.9971 -12.59961,13.8476 -29.28704,30.4984 -37.21275,42.9454 -39.84765,62.5762 -2.88993,21.5502 -0.65339,27.8888 18.53515,52.5176 34.88602,44.7764 29.72229,79.6401 -15.98828,107.9551 -44.85309,27.7855 -58.31836,43.9071 -58.31836,69.8164 0,19.545 4.41816,27.864 27.28516,51.3906 6.45049,6.6365 11.96206,12.8397 16.56055,18.6973 h 47.02539 c -1.37871,-1.5931 -2.80259,-3.2089 -4.28125,-4.8535 -52.16834,-58.025 -47.95401,-92.9827 14.76953,-122.504 18.63555,-8.7726 28.77052,-18.3669 34.9043,-33.0468 10.14793,-24.2852 6.51006,-38.3201 -21.28321,-82.1231 -26.83813,-42.2991 -24.46441,-80.3687 5.83789,-105.3437 -6.95658,-8.1894 -10.64898,-19.1158 -12.59961,-28.9297 z m 232.52536,3.5391 c -0.3757,-0.065 -1.3142,3.117 -3.3593,10.5507 -2.6721,2.787 -15.9013,29.1746 -18.8633,33.2071 -10.5764,14.399 -16.4437,67.4855 23.4472,89.9082 24.6873,13.8745 36.5489,32.4761 36.5489,57.3144 0,18.1268 -7.2958,32.6716 -33.9961,67.7774 -35.534,46.7204 -25.8584,77.2369 33.9961,107.2382 4.6743,2.3431 9.0042,4.7692 12.998,7.2657 h 69.3262 c -6.728,-5.5835 -14.737,-10.7887 -23.8867,-15.3672 -40.0048,-20.0199 -56.8626,-35.5942 -61.5313,-56.8477 -4.342,-19.7741 3.1931,-36.1095 30.9981,-67.2051 21.1142,-23.6139 25.9844,-48.4687 13.916,-71.0195 -3.4365,-6.4175 -20.3349,-22.758 -37.5528,-36.3164 -54.4241,-31.1535 -40.0118,-126.1561 -42.041,-126.5058 z"
     id="path3254"
     inkscape:connector-curvature="0" />
  <path
     style="fill:#000000;stroke-width:1.13141179"
     d="m 971.2718,1679.3273 c -16.4295,-3.5398 -30.455,-19.3432 -30.9139,-34.8326 -0.1462,-4.9319 0.2515,-6.0455 3.006,-8.4168 l 3.1744,-2.733 h 96.0439 96.0438 l 3.1745,2.7316 c 2.799,2.4086 3.1458,3.4233 2.9318,8.5791 -0.6485,15.6263 -14.0399,30.7469 -30.7044,34.6694 -8.6551,2.0372 -133.3016,2.0392 -142.7561,0 z m -21.2048,-63.9556 c -11.7798,-4.0692 -22.1529,-16.0225 -25.0193,-28.8306 -1.2199,-5.4516 -1.1594,-6.816 0.4527,-10.2135 1.1914,-2.5107 3.115,-4.3586 5.3471,-5.1367 4.8199,-1.6802 218.7091,-1.6594 223.5317,0.022 5.2518,1.8309 7.3436,7.2102 5.7554,14.8015 -2.7385,13.0904 -12.4348,24.7251 -24.3081,29.1674 -6.0698,2.271 -8.1764,2.3229 -93.0038,2.2868 -80.944,-0.034 -87.1954,-0.1758 -92.7557,-2.0965 z m -13.8376,-61.4044 c -18.5242,-5.0354 -34.3906,-32.6981 -24.4539,-42.6349 l 3.0086,-3.0085 h 127.7981 127.7981 l 3.0953,3.0953 c 2.4645,2.4646 3.0575,4.0425 2.9099,7.743 -0.605,15.1728 -13.3326,30.7659 -28.5665,34.9983 -5.2658,1.4629 -206.1716,1.2794 -211.5896,-0.1932 z m -32.1653,-81.5657 c -2.7626,-65.5076 -16.1528,-117.0662 -45.1774,-173.9545 -8.8528,-17.3514 -11.5457,-22.2024 -24.494,-44.125 -48.9592,-82.8919 -63.4252,-116.2529 -71.2759,-164.3738 -11.8591,-72.6905 1.6186,-143.136 38.7941,-202.7694 6.0579,-9.7176 8.9092,-13.768 19.7376,-28.0388 5.8878,-7.7596 28.8209,-31.1091 38.7764,-39.4803 36.3107,-30.5328 81.2037,-51.7864 128.4153,-60.7954 69.7409,-13.3082 140.3903,-0.7391 200.4074,35.6542 56.8451,34.4699 100.3752,88.4368 121.8463,151.0604 10.3823,30.2815 14.6752,56.8862 14.7663,91.512 0.1683,64.0439 -13.4718,110.1642 -53.1006,179.5452 -5.9743,10.4597 -12.0241,20.7996 -13.444,22.9775 -6.9718,10.6942 -25.8455,44.5854 -34.654,62.2277 -11.7877,23.6091 -16.3903,34.5981 -23.6728,56.5197 -11.8092,35.5483 -17.0125,64.345 -19.3794,107.252 l -1.3887,25.174 H 1042.5301 904.8394 Z m 66.8638,-40.165 c -0.6424,-28.2904 -2.9743,-70.572 -4.6642,-84.5731 -2.4571,-20.3564 -3.2969,-26.907 -5.2949,-41.2965 -2.6794,-19.298 -7.9084,-49.0299 -15.1229,-85.9873 -11.1043,-56.8842 -16.825,-93.075 -15.7665,-99.7441 0.5405,-3.4051 2.9536,-6.4172 13.5968,-16.9712 20.198,-20.0289 24.4109,-20.7505 39.2889,-6.7297 11.26,10.6112 16.1522,13.698 21.7098,13.698 5.1593,0 12.3801,-4.3315 20.9361,-12.5591 9.1018,-8.7524 11.3211,-10.0691 16.9712,-10.0691 5.8325,0 8.1045,1.382 18.3344,11.1521 16.5777,15.8326 22.4494,15.5257 41.2112,-2.1541 14.9818,-14.1175 18.6714,-13.5439 38.5016,5.9855 10.3477,10.1907 13.9273,14.4562 14.4443,17.2117 1.163,6.1997 -4.695,43.4359 -15.7604,100.18 -12.0234,61.6572 -18.0074,100.8482 -21.4215,140.2951 -2.2407,25.8909 -4.0164,63.956 -4.0243,86.27 l -0.01,17.8198 h 20.8496 20.8497 l 0.6152,-5.9399 c 0.3385,-3.2669 1.167,-12.0496 1.8412,-19.5169 2.0594,-22.8055 6.1999,-44.978 13.0333,-69.7931 10.2174,-37.1045 26.1106,-73.7736 48.4559,-111.7984 1.6455,-2.8002 4.5369,-7.8916 6.425,-11.3142 1.8883,-3.4225 5.1099,-9.023 7.1592,-12.4455 28.3258,-47.307 42.4058,-75.1016 52.1559,-102.9584 11.8184,-33.7662 16.0766,-62.6735 14.9728,-101.6424 -1.2019,-42.423 -10.1205,-76.2155 -30.1787,-114.3454 -20.5254,-39.0181 -55.4737,-75.7092 -94.3039,-99.0069 -27.9148,-16.7484 -58.1311,-27.8303 -91.8577,-33.6886 -21.3307,-3.7052 -61.2624,-3.7052 -82.593,0 -27.5017,4.7771 -51.4273,12.5598 -74.6733,24.2904 -66.462,33.5386 -116.6116,95.8046 -134.1496,166.5609 -5.6046,22.6109 -6.8791,32.503 -7.5075,58.2677 -1.5176,62.2188 11.5927,106.6036 52.3531,177.2414 6.0486,10.4822 15.5644,26.9502 21.1463,36.5955 25.9538,44.8476 35.2854,64.0138 46.72,95.9586 11.3002,31.5691 19.118,66.4651 21.9727,98.0784 0.6742,7.4673 1.5028,16.25 1.8412,19.5169 l 0.6152,5.9399 h 21.0314 21.0315 z m 117.3696,3.3942 c 1.1549,-42.7502 4.2987,-85.5434 8.748,-119.0811 4.0906,-30.8333 7.5447,-50.7974 19.0852,-110.3127 5.1214,-26.4112 11.9351,-66.1227 13.0768,-76.2144 l 0.7419,-6.5574 -4.3671,-3.4366 c -8.0954,-6.3707 -11.5987,-5.9913 -19.1877,2.0781 -2.5508,2.7123 -7.8225,8.3394 -11.7147,12.5045 -11.4814,12.2864 -16.4471,12.0407 -31.2925,-1.5482 -19.0565,-17.4437 -23.4592,-17.2717 -43.3882,1.6943 -8.1583,7.7641 -12.4602,9.6184 -18.9882,8.1846 -3.3384,-0.7332 -12.5981,-9.5177 -19.3783,-18.3837 -4.8411,-6.3304 -10.6195,-9.8563 -14.5399,-8.8723 -1.655,0.4154 -5.0046,2.3356 -7.4436,4.2673 l -4.4343,3.512 0.7569,6.8779 c 1.0949,9.9493 6.4783,41.228 12.4781,72.4997 2.8654,14.9346 6.4824,34.0272 8.0376,42.428 1.5553,8.4007 3.5428,18.8379 4.4168,23.1939 2.1031,10.4826 9.2261,62.3352 10.724,78.0674 2.368,24.8709 4.4687,60.5995 5.2386,89.0987 l 0.7872,29.1338 h 44.9281 44.9282 z"
     id="path825-7"
     inkscape:connector-curvature="0"
     inkscape:export-xdpi="96"
     inkscape:export-ydpi="96" />
</svg>
